<?xml version="1.0" standalone="no"?>
<!DOCTYPE svg PUBLIC "-//W3C//DTD SVG 20010904//EN"
 "http://www.w3.org/TR/2001/REC-SVG-20010904/DTD/svg10.dtd">
<svg version="1.0" xmlns="http://www.w3.org/2000/svg"
 width="810.000000pt" height="810.000000pt" viewBox="0 0 810.000000 810.000000"
 preserveAspectRatio="xMidYMid meet">
<metadata>
Created by potrace 1.14, written by Peter Selinger 2001-2017
</metadata>
<g transform="translate(0.000000,810.000000) scale(0.100000,-0.100000)"
fill="#000000" stroke="none">
<path d="M3625 8082 c-24 -5 -115 -69 -254 -177 -194 -151 -246 -226 -305
-440 -40 -143 -65 -212 -98 -269 -33 -59 -58 -111 -65 -140 -3 -12 -6 -149 -8
-306 -3 -291 -9 -360 -47 -477 -29 -93 -61 -149 -84 -145 -148 20 -211 -51
-143 -164 l18 -30 -102 -135 c-56 -75 -131 -177 -167 -227 -65 -91 -65 -92
-102 -86 -28 4 -42 0 -64 -19 -26 -23 -27 -26 -17 -74 l10 -50 -26 13 c-40 21
-60 17 -80 -17 -21 -34 -21 -54 -2 -111 12 -37 12 -37 -68 -155 -98 -145 -138
-197 -266 -350 -185 -219 -217 -261 -316 -418 -73 -116 -209 -394 -209 -428 0
-7 -4 -17 -9 -22 -13 -16 -69 -204 -81 -280 l-12 -70 47 -115 c95 -231 229
-510 246 -510 5 0 9 -9 9 -20 0 -27 67 -226 87 -259 9 -14 26 -37 37 -50 13
-15 17 -25 10 -28 -6 -2 -18 -9 -27 -16 -14 -11 -14 -14 -2 -31 14 -18 16 -18
33 -3 18 16 20 15 42 -33 16 -34 28 -49 38 -45 7 3 15 5 17 5 1 0 -2 18 -7 40
-19 75 9 64 78 -30 74 -102 150 -181 288 -299 163 -139 237 -214 292 -298 65
-97 65 -98 0 -242 -54 -120 -66 -162 -72 -250 -5 -72 -18 -123 -42 -160 -15
-21 -14 -25 2 -36 9 -7 25 -12 34 -10 9 2 20 4 23 4 4 1 27 22 53 48 48 50 76
113 76 171 0 18 11 52 24 75 13 23 27 57 31 75 9 45 22 32 20 -20 -9 -174 -21
-237 -56 -288 -74 -108 -91 -199 -58 -302 l19 -56 -36 -76 c-20 -42 -40 -79
-45 -82 -5 -3 -9 -11 -9 -18 0 -20 104 -20 141 -1 85 44 132 222 95 360 -9 34
-10 56 -4 68 16 30 50 67 59 62 6 -5 34 -91 54 -170 5 -16 9 -34 11 -40 70
-262 70 -249 13 -351 -46 -82 -55 -104 -44 -104 25 0 120 58 149 91 39 46 88
142 106 207 15 57 11 174 -10 280 -30 153 -23 191 66 338 23 39 54 98 69 130
21 49 25 53 20 24 -8 -54 -12 -69 -34 -150 -18 -64 -32 -143 -35 -200 -1 -31
15 -151 23 -173 81 -202 88 -238 62 -315 -31 -91 1 -101 47 -14 70 132 79 242
37 432 -49 218 -31 317 96 512 95 147 99 232 24 453 -26 77 -48 160 -49 185
-4 62 15 136 48 192 26 45 28 46 45 30 18 -18 43 -92 39 -114 -2 -8 6 -12 23
-11 26 1 27 0 25 -50 -1 -46 2 -52 21 -55 13 -2 27 5 37 20 16 22 16 22 17
-12 0 -19 3 -44 5 -55 10 -44 13 -313 4 -360 -10 -49 -40 -117 -63 -139 -7 -7
-45 -32 -84 -55 -87 -51 -125 -89 -153 -149 -33 -69 -34 -143 -4 -238 14 -45
24 -87 22 -95 -2 -8 4 -14 12 -14 12 0 15 18 17 97 2 147 10 223 24 246 18 29
47 40 144 57 17 3 38 8 48 11 26 8 33 -23 12 -58 -13 -22 -15 -41 -10 -74 3
-24 2 -44 -2 -44 -10 0 -49 -62 -44 -70 14 -24 28 -70 21 -70 -5 0 -18 -14
-30 -31 -40 -55 -29 -143 21 -169 15 -9 18 -15 10 -24 -24 -29 -17 -104 13
-145 6 -7 11 -43 11 -78 0 -64 1 -66 41 -102 32 -28 39 -40 33 -56 -13 -33
-10 -80 7 -113 17 -35 59 -72 81 -72 10 0 13 -6 9 -16 -9 -24 20 -83 48 -95
21 -10 23 -15 14 -35 -14 -29 5 -79 37 -100 27 -18 101 -25 133 -13 14 6 22 5
22 -2 0 -6 9 -23 20 -39 21 -29 63 -43 133 -44 32 0 39 -4 44 -26 26 -106 136
-124 218 -37 22 24 45 51 50 61 9 15 14 16 40 6 24 -9 37 -8 70 6 57 25 77 50
83 100 4 42 6 44 36 43 54 -3 65 0 100 31 39 34 67 104 55 135 -13 33 -10 39
20 57 59 33 91 123 64 175 -12 24 -12 32 3 65 20 44 14 134 -12 173 -14 21
-14 24 4 37 48 33 71 110 45 151 -3 5 4 6 16 3 11 -3 30 -8 40 -11 29 -9 36
14 13 38 -57 60 -62 183 -12 271 16 30 53 135 64 187 21 95 25 231 11 354 -7
68 -9 81 -20 135 -2 14 -7 45 -10 70 -4 25 -8 58 -11 74 -3 15 -1 33 5 40 5 6
7 32 6 59 -3 48 2 56 22 36 14 -14 32 17 27 47 -5 29 37 89 61 89 12 0 30 19
50 53 l32 53 35 -93 c80 -209 74 -321 -31 -663 -83 -268 -94 -319 -94 -449 0
-165 29 -285 107 -446 48 -98 76 -142 138 -222 25 -32 56 -78 69 -103 13 -25
29 -45 34 -45 36 0 54 137 31 227 -8 29 -10 60 -5 78 5 16 11 45 14 65 7 47
25 110 30 110 2 0 4 -42 3 -93 -1 -80 1 -98 19 -123 33 -47 65 -107 69 -131
10 -56 11 -164 1 -212 -14 -72 3 -89 43 -44 36 39 58 113 65 214 5 71 3 86
-35 197 -44 128 -46 152 -37 329 l6 111 48 74 c26 40 51 75 54 78 3 3 14 20
24 38 11 17 23 32 27 32 24 0 31 -194 9 -247 -52 -126 28 -434 107 -409 11 4
22 17 26 29 5 23 -1 101 -10 127 -12 35 -16 199 -5 251 6 30 14 69 18 85 15
70 5 231 -18 301 -9 29 -7 37 20 75 54 76 256 321 268 325 7 3 10 -5 9 -20 -4
-38 20 -88 38 -81 20 7 20 9 1 70 -8 27 -15 50 -15 52 0 2 16 -6 36 -19 32
-19 37 -20 51 -6 21 20 10 35 -32 43 -20 3 -37 9 -39 13 -3 4 14 27 37 52 23
25 67 74 97 108 30 35 64 74 75 87 83 94 127 160 195 289 21 39 56 120 78 180
59 161 69 183 115 255 23 36 44 67 47 70 3 3 17 23 32 46 123 191 161 399 109
609 -25 98 -90 274 -152 410 -13 28 -23 52 -24 55 0 3 -32 68 -71 145 -91 180
-209 378 -320 535 -48 68 -87 130 -87 137 0 7 -10 13 -21 13 -17 0 -16 4 13
28 27 22 32 34 33 68 0 23 -3 50 -6 61 -8 26 -97 55 -160 52 -45 -3 -49 -1
-89 47 -23 27 -126 132 -228 234 -128 127 -201 209 -234 260 -87 136 -127 194
-199 285 -39 50 -73 92 -77 95 -4 3 -29 40 -57 83 l-51 78 1 207 c0 114 6 251
12 304 19 156 11 204 -61 388 -28 72 -29 76 -104 245 -67 152 -87 181 -172
241 -39 27 -106 84 -151 127 -99 95 -181 139 -260 140 -30 1 -60 -4 -68 -10
-10 -9 -26 -9 -58 -2 -25 6 -58 13 -75 15 -16 3 -41 7 -55 9 -192 30 -377 18
-470 -30 -25 -13 -30 -13 -30 -2 0 35 -60 61 -115 49z m146 -1731 c1 -9 1 -29
1 -45 -1 -16 3 -37 8 -47 7 -12 5 -29 -6 -54 -15 -37 -15 -120 1 -145 4 -7 24
-10 51 -7 29 3 48 -1 55 -10 22 -25 52 -13 105 42 l52 56 39 -16 c21 -8 47
-16 58 -18 11 -2 30 -8 42 -15 33 -18 61 -15 96 12 22 16 48 25 81 27 43 3 51
0 59 -19 6 -12 18 -22 27 -22 28 0 84 43 90 69 l6 24 17 -26 c10 -16 27 -27
40 -27 28 0 67 26 67 46 0 20 13 17 28 -7 7 -11 43 -59 81 -107 66 -85 380
-576 496 -777 80 -137 135 -244 135 -260 0 -8 6 -18 13 -22 18 -11 67 -99 81
-147 10 -35 9 -45 -11 -83 -45 -89 -37 -185 18 -226 25 -18 28 -18 62 -2 20 9
39 25 42 36 7 21 25 26 25 7 0 -6 6 -19 14 -27 13 -15 53 -133 135 -393 47
-148 108 -273 255 -521 l46 -77 -123 -91 c-67 -50 -136 -98 -152 -106 -33 -16
-52 -41 -108 -144 -20 -36 -45 -77 -57 -90 -11 -13 -5 3 13 36 41 72 54 110
62 192 15 141 -76 295 -216 364 -27 13 -49 28 -49 32 0 5 9 29 20 55 52 121
57 263 15 392 -36 111 -160 261 -255 310 -32 17 -38 25 -49 77 -32 144 -158
336 -343 526 -130 132 -192 163 -358 182 -117 14 -175 28 -232 57 -53 28 -73
33 -128 32 -36 0 -95 -10 -132 -22 -48 -15 -97 -21 -173 -23 -156 -2 -222 -28
-347 -134 -41 -36 -73 -52 -161 -80 -120 -39 -169 -71 -218 -141 -32 -48 -69
-139 -89 -226 -17 -72 -52 -148 -82 -178 -13 -14 -54 -51 -91 -83 -45 -40 -74
-75 -91 -112 -53 -111 -21 -234 65 -252 23 -4 29 -11 30 -32 0 -14 2 -33 4
-41 35 -148 37 -189 11 -299 -5 -23 -60 -115 -83 -139 -7 -7 -25 -34 -39 -58
-23 -39 -26 -52 -20 -97 10 -81 8 -104 -24 -193 -23 -66 -28 -96 -26 -151 2
-37 7 -77 11 -88 5 -10 -22 17 -61 60 -38 44 -115 127 -172 184 -57 58 -113
123 -124 145 -20 38 -94 116 -110 116 -16 0 -23 2 -40 11 -16 9 -14 14 16 62
82 130 221 407 379 757 11 25 21 47 22 50 13 49 27 62 42 37 15 -25 61 -49 82
-42 41 13 39 100 -4 192 -13 29 -20 55 -15 58 5 3 12 -1 17 -8 25 -43 98 -39
123 7 24 47 15 143 -21 208 -16 29 -15 35 27 126 19 40 34 76 34 79 0 10 192
396 213 429 21 32 24 32 80 29 52 -3 61 -1 90 24 27 25 31 35 30 75 -1 26 -11
67 -23 91 l-21 44 30 45 c17 25 31 48 31 51 0 9 68 92 114 140 100 102 153
190 160 265 4 53 11 60 44 48 24 -9 36 -6 81 20 55 31 80 32 82 3z m-826
-1943 c-3 -18 -25 -64 -48 -103 -23 -38 -45 -82 -50 -97 -18 -64 -64 16 -48
85 5 20 7 37 5 37 -3 0 10 16 27 35 24 26 100 75 117 75 1 0 0 -15 -3 -32z
m2333 -67 c103 -107 137 -246 96 -396 -9 -33 -20 -76 -23 -95 -7 -33 -7 -34
-14 -10 -18 60 -26 100 -36 178 -12 94 -33 175 -63 242 -12 25 -26 71 -33 103
l-13 58 22 -18 c11 -9 41 -37 64 -62z m96 -706 c22 -52 84 -114 148 -146 63
-32 72 -51 70 -148 -1 -53 -34 -197 -52 -232 -14 -25 -40 -154 -40 -195 0 -23
-14 -56 -47 -106 l-46 -73 -19 44 c-10 25 -20 52 -22 60 -1 9 -10 41 -19 71
-16 54 -31 180 -30 250 1 19 8 69 18 110 11 51 17 127 18 237 1 90 3 163 4
163 2 0 9 -16 17 -35z m-2605 -734 c-2 -6 -12 4 -22 22 l-18 32 21 -21 c13
-12 21 -27 19 -33z m-1175 -238 c16 -29 37 -61 48 -73 30 -32 -2 -24 -46 12
-37 31 -86 119 -86 156 0 25 49 -30 84 -95z m2977 -585 c1 -7 1 -33 0 -58 -1
-25 5 -62 14 -83 11 -28 13 -43 5 -57 -6 -11 -10 -50 -9 -87 1 -38 -1 -83 -5
-101 -5 -24 -2 -44 14 -76 18 -39 19 -46 6 -71 -20 -38 -14 -109 12 -145 18
-23 19 -31 8 -37 -21 -13 -46 -69 -46 -105 0 -18 9 -48 20 -66 11 -17 16 -32
11 -32 -12 0 -51 -81 -51 -106 0 -12 11 -43 25 -70 l25 -48 -25 -26 c-36 -38
-41 -119 -9 -165 l23 -34 -29 -31 c-31 -33 -46 -85 -36 -118 5 -15 -4 -30 -34
-58 -22 -21 -45 -53 -52 -70 -10 -30 -13 -31 -54 -26 -58 6 -118 -28 -141 -81
-14 -31 -21 -37 -38 -32 -43 12 -55 13 -82 6 -23 -6 -34 -3 -60 20 -38 33
-101 52 -146 45 -34 -5 -43 4 -89 90 -20 38 -71 82 -103 90 -22 5 -24 10 -21
52 5 54 -22 117 -54 127 -17 5 -20 14 -19 63 1 67 -5 96 -26 128 -9 14 -11 25
-5 29 19 12 10 62 -18 101 -28 39 -28 39 -10 69 24 40 23 96 -3 129 -16 20
-18 30 -10 40 7 8 11 30 9 50 -1 24 4 42 19 58 24 27 36 61 35 102 0 16 8 43
20 58 15 22 19 38 14 66 -3 20 -8 51 -10 69 -2 17 -8 39 -14 48 -7 13 -3 23
15 41 12 13 24 35 24 49 1 14 2 31 3 38 3 17 -26 77 -36 77 -5 0 -2 10 7 23 8
13 16 36 17 51 1 15 11 32 21 37 15 9 17 7 12 -14 -4 -15 0 -38 9 -55 14 -26
14 -34 2 -57 -11 -20 -12 -35 -4 -55 6 -19 6 -35 -1 -49 -14 -25 -14 -78 0
-86 6 -5 8 -22 4 -46 -5 -28 -2 -47 9 -63 12 -19 13 -30 4 -60 -9 -27 -8 -42
1 -59 8 -16 9 -30 2 -49 -7 -18 -6 -33 5 -53 10 -20 11 -32 3 -46 -12 -23 -3
-58 20 -79 18 -17 27 -95 11 -105 -15 -10 -12 -63 6 -90 11 -16 13 -29 7 -38
-15 -19 -8 -56 16 -81 12 -12 21 -35 21 -52 0 -20 9 -39 25 -54 20 -19 25 -31
20 -57 -6 -38 25 -81 64 -88 13 -2 32 -11 41 -20 9 -9 40 -18 68 -22 47 -5 53
-3 82 26 18 17 42 31 55 31 36 0 85 46 85 81 0 22 5 30 26 35 30 8 64 57 57
83 -2 10 8 30 25 49 22 23 29 40 27 66 -1 20 -4 39 -8 43 -4 3 0 15 10 25 9
10 17 37 18 60 1 24 6 52 12 64 12 21 11 47 -2 97 -4 16 -3 33 3 40 6 7 13 35
16 62 3 28 8 64 12 82 3 18 1 46 -4 63 -8 22 -8 36 3 56 7 14 11 38 8 53 -10
47 -5 161 8 177 17 21 13 70 -8 100 l-19 26 33 33 c18 18 44 36 58 39 14 4 25
11 25 16 0 15 20 12 21 -2z m-704 -123 c8 -9 16 -21 17 -28 1 -6 5 -18 10 -25
11 -19 36 4 31 29 -2 10 -1 19 3 19 13 0 45 -62 46 -89 1 -15 7 -26 15 -26 12
0 19 8 38 44 3 5 77 -42 81 -51 6 -14 19 -9 52 22 18 17 38 30 46 30 8 0 14 6
14 13 1 6 9 -4 18 -23 21 -43 52 -53 52 -16 0 28 19 76 31 76 4 0 5 -9 2 -19
-3 -10 0 -28 6 -38 7 -14 7 -23 -1 -31 -19 -19 -24 -172 -7 -204 8 -15 7 -24
-4 -36 -26 -29 -30 -61 -12 -88 16 -24 15 -27 -1 -46 -12 -13 -19 -36 -19 -67
0 -26 -5 -54 -11 -62 -20 -25 -24 -64 -10 -91 11 -21 11 -28 1 -39 -17 -17
-20 -46 -11 -81 6 -20 3 -34 -12 -53 -12 -16 -19 -35 -16 -50 3 -15 -2 -28
-14 -37 -22 -15 -44 -53 -36 -61 4 -3 -10 -12 -29 -21 -20 -8 -41 -24 -47 -36
-8 -14 -17 -19 -30 -15 -10 3 -34 -1 -54 -9 -29 -12 -35 -12 -40 0 -3 7 -1 16
4 19 26 16 -9 115 -45 129 -8 3 -15 11 -15 18 0 7 -7 26 -15 42 -9 17 -12 33
-6 40 13 17 20 66 10 72 -5 3 -9 20 -9 37 0 18 -6 42 -14 53 -8 11 -15 38 -14
60 0 21 -5 66 -11 99 -7 33 -12 79 -11 103 0 23 -3 48 -7 55 -4 6 -9 37 -10
67 -1 30 -3 65 -3 78 -3 55 -1 119 5 182 1 19 3 43 4 53 1 21 8 22 28 2z m923
-58 c0 -18 -2 -19 -10 -7 -13 20 -13 43 0 35 6 -3 10 -16 10 -28z m26 -162 c2
-30 -11 -33 -19 -5 -3 10 0 21 7 24 6 2 11 5 11 5 0 1 1 -10 1 -24z"/>
<path d="M3910 1734 c0 -8 5 -12 10 -9 6 3 10 10 10 16 0 5 -4 9 -10 9 -5 0
-10 -7 -10 -16z"/>
<path d="M5610 1185 c0 -8 5 -15 10 -15 6 0 10 7 10 15 0 8 -4 15 -10 15 -5 0
-10 -7 -10 -15z"/>
</g>
</svg>
